<?xml version="1.0" encoding="UTF-8" standalone="no"?><!DOCTYPE svg PUBLIC "-//W3C//DTD SVG 1.1//EN" "http://www.w3.org/Graphics/SVG/1.1/DTD/svg11.dtd"><svg width="100%" height="100%" viewBox="0 0 1046 211" version="1.1" xmlns="http://www.w3.org/2000/svg" xmlns:xlink="http://www.w3.org/1999/xlink" xml:space="preserve" xmlns:serif="http://www.serif.com/" style="fill-rule:evenodd;clip-rule:evenodd;stroke-linejoin:round;stroke-miterlimit:2;"><g id="logo"><g id="chat"><path d="M136.416,69.755L50.381,122.636L136.416,174.889L136.416,210.226L0,122.636L136.416,35.045L136.416,69.755Z" style="fill:url(#_Linear1);"/><path d="M109.159,166.128L117.555,148.605L136.416,148.605L136.416,183.65L109.159,166.128Z" style="fill:url(#_Linear2);"/><path d="M109.159,78.516L136.416,60.994L136.416,96.038L117.555,96.038L109.159,78.516Z" style="fill:url(#_Linear3);"/></g><g id="llm"><rect x="145.545" y="0" width="16.794" height="105.134" style="fill:url(#_Linear4);"/><rect x="170.735" y="17.502" width="16.794" height="105.134" style="fill:url(#_Linear5);"/><rect x="195.926" y="0" width="16.794" height="105.134" style="fill:url(#_Linear6);"/></g></g><g transform="matrix(200,0,0,200,1064.48,178.313)"></g><text x="243.283px" y="178.313px" style="font-family:'Montserrat-SemiBold', 'Montserrat';font-weight:600;font-size:200px;fill:#fff;">Chat<tspan x="726.483px " y="178.313px ">e</tspan>AI</text><defs><linearGradient id="_Linear1" x1="0" y1="0" x2="1" y2="0" gradientUnits="userSpaceOnUse" gradientTransform="matrix(1.02807e-14,175.182,-167.897,1.07268e-14,68.208,35.0446)"><stop offset="0" style="stop-color:#b700dd;stop-opacity:1"/><stop offset="1" style="stop-color:#ff1c3e;stop-opacity:1"/></linearGradient><linearGradient id="_Linear2" x1="0" y1="0" x2="1" y2="0" gradientUnits="userSpaceOnUse" gradientTransform="matrix(1.02807e-14,175.182,-167.897,1.07268e-14,68.208,35.0446)"><stop offset="0" style="stop-color:#b700dd;stop-opacity:1"/><stop offset="1" style="stop-color:#ff1c3e;stop-opacity:1"/></linearGradient><linearGradient id="_Linear3" x1="0" y1="0" x2="1" y2="0" gradientUnits="userSpaceOnUse" gradientTransform="matrix(1.02807e-14,175.182,-167.897,1.07268e-14,68.208,35.0446)"><stop offset="0" style="stop-color:#b700dd;stop-opacity:1"/><stop offset="1" style="stop-color:#ff1c3e;stop-opacity:1"/></linearGradient><linearGradient id="_Linear4" x1="0" y1="0" x2="1" y2="0" gradientUnits="userSpaceOnUse" gradientTransform="matrix(1.26562e-15,105.134,-20.6691,6.43759e-15,153.942,0)"><stop offset="0" style="stop-color:#b700dd;stop-opacity:1"/><stop offset="1" style="stop-color:#ff1c3e;stop-opacity:1"/></linearGradient><linearGradient id="_Linear5" x1="0" y1="0" x2="1" y2="0" gradientUnits="userSpaceOnUse" gradientTransform="matrix(1.26562e-15,105.134,-20.6691,6.43759e-15,179.132,17.5017)"><stop offset="0" style="stop-color:#b700dd;stop-opacity:1"/><stop offset="1" style="stop-color:#ff1c3e;stop-opacity:1"/></linearGradient><linearGradient id="_Linear6" x1="0" y1="0" x2="1" y2="0" gradientUnits="userSpaceOnUse" gradientTransform="matrix(1.26562e-15,105.134,-20.6691,6.43759e-15,204.322,0)"><stop offset="0" style="stop-color:#b700dd;stop-opacity:1"/><stop offset="1" style="stop-color:#ff1c3e;stop-opacity:1"/></linearGradient></defs></svg>